<svg xmlns="http://www.w3.org/2000/svg" width="49" height="52" fill="none"><path fill="#D1193B" d="M.962.024v44.588H7.51v7.303h.102l7.227-7.303h34.142V.024H.962Z"/><path fill="#D1193B" d="M.962.024H48.98v44.588H.962V.024Z"/><path fill="#991637" d="m6.238 17.319 4.088 3.979h2.606v10.888l12.762 12.426h23.287V24.494l-4.86-4.73h-2.89v-3.23l-4.193-4.082-4.71 6.945-7.134-6.945-18.956 4.867Z"/><path fill="#fff" d="M32.328 32.106v-7.31h-7.084v-5.033h7.084v-7.311h4.71v7.311h7.084v5.033h-7.084v7.31h-4.71ZM12.932 32.186V17.319H6.238v-4.867h18.956v4.867H18.54v14.867h-5.607Z"/></svg>
